Coordinates
version=1
nRows=27
nColumns=38
inDegrees=no

Units are S.I. units (second, meters, Newtons, ...)
If the header above contains a line with 'inDegrees', this indicates whether rotational values are in degrees (yes) or radians (no).

endheader
time	pelvis_tilt	pelvis_list	pelvis_rotation	pelvis_tx	pelvis_ty	pelvis_tz	hip_flexion_r	hip_adduction_r	hip_rotation_r	knee_angle_r	ankle_angle_r	subtalar_angle_r	mtp_angle_r	hip_flexion_l	hip_adduction_l	hip_rotation_l	knee_angle_l	ankle_angle_l	subtalar_angle_l	mtp_angle_l	lumbar_extension	lumbar_bending	lumbar_rotation	arm_flex_r	arm_add_r	arm_rot_r	elbow_flex_r	pro_sup_r	wrist_flex_r	wrist_dev_r	arm_flex_l	arm_add_l	arm_rot_l	elbow_flex_l	pro_sup_l	wrist_flex_l	wrist_dev_l
0.98	-2.83746	1.51524	-1.85309	0.65164	0.276238	1.02493	0.517992	0.0322993	0.0404757	0.990197	-0.113499	0	0	-0.136617	0.0757624	-0.307045	0.375169	-0.13916	0	0	-0.356186	-0.0219188	-0.00583904	0.0578974	-0.341834	1.04188	0.41161	0.784805	0	0	-0.0284218	-0.341538	0.529548	0.506901	1.0673	0	0
0.99	-2.84187	1.52003	-1.8478	0.65107	0.285724	1.0239	0.527045	0.0323251	0.0249601	0.941904	-0.11079	0	0	-0.145531	0.0753761	-0.30444	0.367819	-0.136559	0	0	-0.351815	-0.0199984	-0.00550926	0.0581655	-0.340805	1.04296	0.410404	0.782694	0	0	-0.0263325	-0.342127	0.532303	0.505836	1.06619	0	0
1	-2.84681	1.52466	-1.84205	0.650506	0.295285	1.0228	0.533987	0.0326643	0.00721552	0.892056	-0.106848	0	0	-0.154772	0.0751081	-0.301599	0.36045	-0.134188	0	0	-0.347757	-0.018161	-0.00506148	0.0583319	-0.339471	1.04383	0.408719	0.780323	0	0	-0.024138	-0.342172	0.534797	0.504079	1.06476	0	0
1.01	-2.85261	1.52932	-1.83531	0.649948	0.304882	1.02165	0.539894	0.0329885	-0.0126447	0.842689	-0.101883	0	0	-0.164048	0.0749461	-0.298028	0.352866	-0.132278	0	0	-0.3439	-0.0162798	-0.00459114	0.0584288	-0.337838	1.04452	0.406464	0.777742	0	0	-0.0217848	-0.341531	0.536674	0.501399	1.06279	0	0
1.02	-2.86412	1.53413	-1.82216	0.649383	0.31456	1.02041	0.543865	0.0334419	-0.034486	0.792696	-0.0966115	0	0	-0.173032	0.0743052	-0.293824	0.345845	-0.130562	0	0	-0.339896	-0.0139269	-0.0048263	0.0584529	-0.335925	1.04503	0.403714	0.775481	0	0	-0.0195785	-0.340922	0.53877	0.498481	1.0617	0	0
1.03	-2.88995	1.53901	-1.79432	0.648833	0.324327	1.01908	0.546179	0.0342088	-0.0575902	0.743126	-0.0926391	0	0	-0.181809	0.0729913	-0.289401	0.33949	-0.128753	0	0	-0.335965	-0.0110941	-0.00536105	0.058431	-0.333741	1.04552	0.400397	0.773446	0	0	-0.0173088	-0.340568	0.541738	0.49536	1.06246	0	0
1.04	-2.93348	1.5438	-1.74863	0.648339	0.334198	1.0177	0.546779	0.0353347	-0.0810821	0.694541	-0.0896266	0	0	-0.190567	0.0712016	-0.285548	0.333644	-0.126949	0	0	-0.332297	-0.00809357	-0.00589048	0.0583134	-0.331245	1.0458	0.396587	0.771712	0	0	-0.015152	-0.340512	0.544858	0.492524	1.06454	0	0
1.05	-2.98981	1.54787	-1.68991	0.647904	0.344177	1.01632	0.545254	0.0364523	-0.104269	0.647474	-0.0850607	0	0	-0.199697	0.0693263	-0.282774	0.328929	-0.125271	0	0	-0.3294	-0.00526108	-0.00665481	0.0580669	-0.328691	1.04555	0.392828	0.77031	0	0	-0.0136316	-0.340668	0.546742	0.490882	1.06566	0	0
1.06	-3.06309	1.5507	-1.61414	0.64752	0.354272	1.01499	0.541387	0.037878	-0.126443	0.602617	-0.0778421	0	0	-0.210233	0.0675456	-0.280112	0.324062	-0.123963	0	0	-0.327881	-0.00256283	-0.00783879	0.0579605	-0.326318	1.04502	0.389455	0.769471	0	0	-0.0125678	-0.341262	0.547498	0.490486	1.06478	0	0
1.07	3.1406	1.55284	-1.53166	0.647145	0.364535	1.01362	0.536817	0.039382	-0.147325	0.563035	-0.0692413	0	0	-0.221251	0.0657816	-0.277369	0.319703	-0.122873	0	0	-0.326841	-3.78523e-05	-0.00966753	0.0575154	-0.324293	1.0441	0.386909	0.769276	0	0	-0.0120047	-0.342813	0.549139	0.491111	1.06483	0	0
1.08	3.05029	1.5538	-1.43734	0.646725	0.374941	1.01223	0.530981	0.0412468	-0.167101	0.529278	-0.0610998	0	0	-0.232946	0.0635219	-0.274227	0.316369	-0.121799	0	0	-0.326916	0.00266725	-0.0122474	0.056672	-0.322453	1.04238	0.384836	0.769136	0	0	-0.0121029	-0.344701	0.550503	0.49274	1.06457	0	0
1.09	2.96659	1.55387	-1.34912	0.646254	0.385464	1.01081	0.525602	0.043198	-0.185437	0.504222	-0.0545499	0	0	-0.244977	0.0609565	-0.271417	0.314035	-0.120932	0	0	-0.32806	0.0054459	-0.0153189	0.0555872	-0.320902	1.04021	0.383379	0.769084	0	0	-0.0124402	-0.346148	0.550922	0.49425	1.06272	0	0
1.1	2.90284	1.55332	-1.28042	0.645685	0.396118	1.00939	0.521062	0.0448177	-0.201997	0.488982	-0.0496741	0	0	-0.257177	0.0582723	-0.269284	0.312835	-0.120259	0	0	-0.329881	0.00827464	-0.0188092	0.0542892	-0.319574	1.03801	0.382259	0.769179	0	0	-0.0127732	-0.347149	0.551699	0.494911	1.06128	0	0
1.11	2.84883	1.55308	-1.2214	0.64502	0.406909	1.0079	0.5181	0.0460283	-0.215382	0.483732	-0.046545	0	0	-0.268411	0.055653	-0.26882	0.313413	-0.119689	0	0	-0.331162	0.0110785	-0.0223153	0.0526258	-0.318654	1.03614	0.381472	0.769228	0	0	-0.012981	-0.347465	0.552953	0.494342	1.06156	0	0
1.12	2.78068	1.5537	-1.14874	0.64428	0.417824	1.00631	0.516787	0.0470551	-0.222841	0.486804	-0.045321	0	0	-0.278039	0.0532676	-0.269677	0.315425	-0.119434	0	0	-0.331259	0.0138662	-0.0255413	0.0507024	-0.318247	1.03464	0.381054	0.768957	0	0	-0.0132184	-0.346981	0.554038	0.492865	1.06265	0	0
1.13	2.70149	1.55411	-1.06474	0.6434	0.428959	1.00471	0.515216	0.0481295	-0.226605	0.496675	-0.0446303	0	0	-0.287323	0.0504301	-0.271101	0.318557	-0.119212	0	0	-0.330787	0.0173603	-0.0294192	0.0483051	-0.318479	1.03285	0.381255	0.768439	0	0	-0.0137479	-0.345947	0.555372	0.490777	1.06445	0	0
1.14	2.62579	1.55442	-0.983715	0.642428	0.440413	1.00303	0.513752	0.0492867	-0.226669	0.515049	-0.0437737	0	0	-0.296127	0.0470376	-0.272992	0.32332	-0.118963	0	0	-0.329505	0.0213248	-0.0341016	0.0449108	-0.319752	1.03048	0.383066	0.767875	0	0	-0.0151068	-0.344811	0.556857	0.488831	1.06733	0	0
1.15	2.51988	1.55483	-0.8714	0.641399	0.452277	1.00129	0.512159	0.0510193	-0.223709	0.537795	-0.0440668	0	0	-0.304039	0.0425155	-0.273965	0.329676	-0.11901	0	0	-0.326988	0.0258517	-0.0395121	0.0404155	-0.321269	1.02799	0.385038	0.767716	0	0	-0.0175142	-0.343353	0.557354	0.487016	1.06978	0	0
1.16	2.35062	1.5543	-0.694717	0.640336	0.46445	0.999635	0.511826	0.0531961	-0.221924	0.561566	-0.0469316	0	0	-0.31057	0.0356855	-0.273966	0.339169	-0.119222	0	0	-0.323969	0.032051	-0.045723	0.0356689	-0.322567	1.02564	0.386051	0.768171	0	0	-0.0203934	-0.340923	0.557263	0.483736	1.07221	0	0
1.17	2.19947	1.55076	-0.537702	0.639348	0.476512	0.998425	0.513191	0.0564327	-0.220136	0.581888	-0.0539141	0	0	-0.317118	0.0265174	-0.275122	0.35129	-0.120045	0	0	-0.323168	0.0403885	-0.0501817	0.0322577	-0.32404	1.02417	0.38583	0.769281	0	0	-0.0218672	-0.336999	0.557925	0.477969	1.07618	0	0
1.18	2.11579	1.54393	-0.450163	0.638393	0.488442	0.997891	0.513767	0.0619165	-0.216416	0.596876	-0.0651214	0	0	-0.324021	0.015062	-0.277724	0.366081	-0.122499	0	0	-0.325449	0.0510807	-0.0518696	0.0302952	-0.325727	1.02313	0.384152	0.770338	0	0	-0.0209176	-0.330454	0.557986	0.468668	1.07976	0	0
1.19	2.07721	1.53488	-0.409206	0.637593	0.500358	0.998058	0.511267	0.0704666	-0.209907	0.610199	-0.0793297	0	0	-0.330427	0.00178576	-0.280281	0.384088	-0.12689	0	0	-0.329861	0.0631986	-0.051631	0.0293711	-0.327159	1.02196	0.381363	0.771022	0	0	-0.0183709	-0.322307	0.557905	0.456623	1.08392	0	0
1.2	2.04816	1.52597	-0.379744	0.637062	0.512269	0.998681	0.506349	0.0811558	-0.19818	0.624028	-0.0945836	0	0	-0.334439	-0.0112237	-0.283365	0.406177	-0.133181	0	0	-0.334469	0.0744702	-0.0499524	0.0290496	-0.32833	1.0206	0.378572	0.771512	0	0	-0.0153691	-0.313888	0.55772	0.443809	1.08909	0	0
1.21	2.02117	1.51843	-0.354906	0.636758	0.524148	0.999583	0.501835	0.0915059	-0.180899	0.639988	-0.107837	0	0	-0.335338	-0.0222703	-0.287492	0.432857	-0.141295	0	0	-0.338178	0.0835271	-0.0468551	0.0290923	-0.329661	1.01953	0.376452	0.772265	0	0	-0.012862	-0.305709	0.556479	0.431673	1.09404	0	0
1.22	2.00199	1.51298	-0.339507	0.636633	0.53615	1.00058	0.497704	0.1002	-0.161487	0.656923	-0.118771	0	0	-0.333079	-0.0311489	-0.292874	0.464935	-0.15131	0	0	-0.340228	0.0896262	-0.0436955	0.0287925	-0.331058	1.01873	0.375202	0.773348	0	0	-0.0119817	-0.298606	0.554323	0.421246	1.09875	0	0
1.23	2.00123	1.50918	-0.342486	0.636589	0.548333	1.00167	0.492357	0.106314	-0.145844	0.67396	-0.127703	0	0	-0.328317	-0.0389619	-0.299315	0.502371	-0.164042	0	0	-0.341516	0.0933754	-0.0416891	0.0280223	-0.332269	1.01821	0.374443	0.774849	0	0	-0.0125745	-0.292786	0.550898	0.412594	1.10228	0	0
1.24	2.01508	1.5058	-0.35884	0.63658	0.560643	1.00283	0.485069	0.109936	-0.140728	0.689209	-0.133564	0	0	-0.320838	-0.0478213	-0.306495	0.545295	-0.181066	0	0	-0.342821	0.0964564	-0.041427	0.0269994	-0.33331	1.01817	0.373924	0.777058	0	0	-0.0142654	-0.288618	0.547755	0.405785	1.10677	0	0
